<svg width="133" height="15" viewBox="0 0 133 15" fill="none" xmlns="http://www.w3.org/2000/svg">
<path d="M7.084 1.242V2.278H4.424V11H3.15V2.278H0.476V1.242H7.084ZM9.92622 4.574C10.1502 4.13533 10.4676 3.79467 10.8782 3.552C11.2982 3.30933 11.8069 3.188 12.4042 3.188V4.504H12.0682C10.6402 4.504 9.92622 5.27867 9.92622 6.828V11H8.65222V3.328H9.92622V4.574ZM13.3989 7.136C13.3989 6.352 13.5575 5.666 13.8749 5.078C14.1922 4.48067 14.6262 4.01867 15.1769 3.692C15.7369 3.36533 16.3575 3.202 17.0389 3.202C17.7109 3.202 18.2942 3.34667 18.7889 3.636C19.2835 3.92533 19.6522 4.28933 19.8949 4.728V3.328H21.1829V11H19.8949V9.572C19.6429 10.02 19.2649 10.3933 18.7609 10.692C18.2662 10.9813 17.6875 11.126 17.0249 11.126C16.3435 11.126 15.7275 10.958 15.1769 10.622C14.6262 10.286 14.1922 9.81467 13.8749 9.208C13.5575 8.60133 13.3989 7.91067 13.3989 7.136ZM19.8949 7.15C19.8949 6.57133 19.7782 6.06733 19.5449 5.638C19.3115 5.20867 18.9942 4.882 18.5929 4.658C18.2009 4.42467 17.7669 4.308 17.2909 4.308C16.8149 4.308 16.3809 4.42 15.9889 4.644C15.5969 4.868 15.2842 5.19467 15.0509 5.624C14.8175 6.05333 14.7009 6.55733 14.7009 7.136C14.7009 7.724 14.8175 8.23733 15.0509 8.676C15.2842 9.10533 15.5969 9.43667 15.9889 9.67C16.3809 9.894 16.8149 10.006 17.2909 10.006C17.7669 10.006 18.2009 9.894 18.5929 9.67C18.9942 9.43667 19.3115 9.10533 19.5449 8.676C19.7782 8.23733 19.8949 7.72867 19.8949 7.15ZM26.1918 9.824L28.5718 3.328H29.9298L26.9198 11H25.4358L22.4258 3.328H23.7978L26.1918 9.824ZM38.1835 6.87C38.1835 7.11267 38.1695 7.36933 38.1415 7.64H32.0095C32.0561 8.396 32.3128 8.98867 32.7795 9.418C33.2555 9.838 33.8295 10.048 34.5015 10.048C35.0521 10.048 35.5095 9.922 35.8735 9.67C36.2468 9.40867 36.5081 9.06333 36.6575 8.634H38.0295C37.8241 9.37133 37.4135 9.97333 36.7975 10.44C36.1815 10.8973 35.4161 11.126 34.5015 11.126C33.7735 11.126 33.1201 10.9627 32.5415 10.636C31.9721 10.3093 31.5241 9.84733 31.1975 9.25C30.8708 8.64333 30.7075 7.94333 30.7075 7.15C30.7075 6.35667 30.8661 5.66133 31.1835 5.064C31.5008 4.46667 31.9441 4.00933 32.5135 3.692C33.0921 3.36533 33.7548 3.202 34.5015 3.202C35.2295 3.202 35.8735 3.36067 36.4335 3.678C36.9935 3.99533 37.4228 4.434 37.7215 4.994C38.0295 5.54467 38.1835 6.17 38.1835 6.87ZM36.8675 6.604C36.8675 6.11867 36.7601 5.70333 36.5455 5.358C36.3308 5.00333 36.0368 4.73733 35.6635 4.56C35.2995 4.37333 34.8935 4.28 34.4455 4.28C33.8015 4.28 33.2508 4.48533 32.7935 4.896C32.3455 5.30667 32.0888 5.876 32.0235 6.604H36.8675ZM41.1391 0.64V11H39.8651V0.64H41.1391ZM46.4744 3.202C47.1371 3.202 47.7158 3.34667 48.2104 3.636C48.7144 3.92533 49.0878 4.28933 49.3304 4.728V3.328H50.6184V11.168C50.6184 11.868 50.4691 12.4887 50.1704 13.03C49.8718 13.5807 49.4424 14.01 48.8824 14.318C48.3318 14.626 47.6878 14.78 46.9504 14.78C45.9424 14.78 45.1024 14.542 44.4304 14.066C43.7584 13.59 43.3618 12.9413 43.2404 12.12H44.5004C44.6404 12.5867 44.9298 12.96 45.3684 13.24C45.8071 13.5293 46.3344 13.674 46.9504 13.674C47.6504 13.674 48.2198 13.4547 48.6584 13.016C49.1064 12.5773 49.3304 11.9613 49.3304 11.168V9.558C49.0784 10.006 48.7051 10.3793 48.2104 10.678C47.7158 10.9767 47.1371 11.126 46.4744 11.126C45.7931 11.126 45.1724 10.958 44.6124 10.622C44.0618 10.286 43.6278 9.81467 43.3104 9.208C42.9931 8.60133 42.8344 7.91067 42.8344 7.136C42.8344 6.352 42.9931 5.666 43.3104 5.078C43.6278 4.48067 44.0618 4.01867 44.6124 3.692C45.1724 3.36533 45.7931 3.202 46.4744 3.202ZM49.3304 7.15C49.3304 6.57133 49.2138 6.06733 48.9804 5.638C48.7471 5.20867 48.4298 4.882 48.0284 4.658C47.6364 4.42467 47.2024 4.308 46.7264 4.308C46.2504 4.308 45.8164 4.42 45.4244 4.644C45.0324 4.868 44.7198 5.19467 44.4864 5.624C44.2531 6.05333 44.1364 6.55733 44.1364 7.136C44.1364 7.724 44.2531 8.23733 44.4864 8.676C44.7198 9.10533 45.0324 9.43667 45.4244 9.67C45.8164 9.894 46.2504 10.006 46.7264 10.006C47.2024 10.006 47.6364 9.894 48.0284 9.67C48.4298 9.43667 48.7471 9.10533 48.9804 8.676C49.2138 8.23733 49.3304 7.72867 49.3304 7.15ZM54.0454 4.574C54.2694 4.13533 54.5867 3.79467 54.9974 3.552C55.4174 3.30933 55.926 3.188 56.5234 3.188V4.504H56.1874C54.7594 4.504 54.0454 5.27867 54.0454 6.828V11H52.7714V3.328H54.0454V4.574ZM57.518 7.136C57.518 6.352 57.6767 5.666 57.994 5.078C58.3113 4.48067 58.7453 4.01867 59.296 3.692C59.856 3.36533 60.4767 3.202 61.158 3.202C61.83 3.202 62.4133 3.34667 62.908 3.636C63.4027 3.92533 63.7713 4.28933 64.014 4.728V3.328H65.302V11H64.014V9.572C63.762 10.02 63.384 10.3933 62.88 10.692C62.3853 10.9813 61.8067 11.126 61.144 11.126C60.4627 11.126 59.8467 10.958 59.296 10.622C58.7453 10.286 58.3113 9.81467 57.994 9.208C57.6767 8.60133 57.518 7.91067 57.518 7.136ZM64.014 7.15C64.014 6.57133 63.8973 6.06733 63.664 5.638C63.4307 5.20867 63.1133 4.882 62.712 4.658C62.32 4.42467 61.886 4.308 61.41 4.308C60.934 4.308 60.5 4.42 60.108 4.644C59.716 4.868 59.4033 5.19467 59.17 5.624C58.9367 6.05333 58.82 6.55733 58.82 7.136C58.82 7.724 58.9367 8.23733 59.17 8.676C59.4033 9.10533 59.716 9.43667 60.108 9.67C60.5 9.894 60.934 10.006 61.41 10.006C61.886 10.006 62.32 9.894 62.712 9.67C63.1133 9.43667 63.4307 9.10533 63.664 8.676C63.8973 8.23733 64.014 7.72867 64.014 7.15ZM76.681 3.188C77.2783 3.188 77.8103 3.314 78.277 3.566C78.7436 3.80867 79.1123 4.17733 79.383 4.672C79.6536 5.16667 79.789 5.76867 79.789 6.478V11H78.529V6.66C78.529 5.89467 78.3376 5.31133 77.955 4.91C77.5816 4.49933 77.073 4.294 76.429 4.294C75.7663 4.294 75.239 4.50867 74.847 4.938C74.455 5.358 74.259 5.96933 74.259 6.772V11H72.999V6.66C72.999 5.89467 72.8076 5.31133 72.425 4.91C72.0516 4.49933 71.543 4.294 70.899 4.294C70.2363 4.294 69.709 4.50867 69.317 4.938C68.925 5.358 68.729 5.96933 68.729 6.772V11H67.455V3.328H68.729V4.434C68.981 4.03267 69.317 3.72467 69.737 3.51C70.1663 3.29533 70.6376 3.188 71.151 3.188C71.795 3.188 72.3643 3.33267 72.859 3.622C73.3536 3.91133 73.7223 4.336 73.965 4.896C74.1796 4.35467 74.5343 3.93467 75.029 3.636C75.5236 3.33733 76.0743 3.188 76.681 3.188ZM90.0912 1.144C91.0339 1.144 91.8739 1.35867 92.6112 1.788C93.3485 2.208 93.9179 2.796 94.3192 3.552C94.7299 4.29867 94.9352 5.15267 94.9352 6.114C94.9352 7.07533 94.7299 7.934 94.3192 8.69C93.9179 9.43667 93.3485 10.0247 92.6112 10.454C91.8739 10.874 91.0339 11.084 90.0912 11.084C89.1392 11.084 88.2945 10.874 87.5572 10.454C86.8199 10.0247 86.2459 9.43667 85.8352 8.69C85.4245 7.934 85.2192 7.07533 85.2192 6.114C85.2192 5.15267 85.4245 4.29867 85.8352 3.552C86.2459 2.796 86.8199 2.208 87.5572 1.788C88.2945 1.35867 89.1392 1.144 90.0912 1.144ZM90.0912 1.704C89.2232 1.704 88.4672 1.89067 87.8232 2.264C87.1792 2.628 86.6845 3.14133 86.3392 3.804C85.9939 4.46667 85.8212 5.23667 85.8212 6.114C85.8212 6.982 85.9939 7.752 86.3392 8.424C86.6845 9.08667 87.1792 9.60467 87.8232 9.978C88.4672 10.3513 89.2232 10.538 90.0912 10.538C90.9499 10.538 91.6965 10.3513 92.3312 9.978C92.9752 9.60467 93.4699 9.08667 93.8152 8.424C94.1605 7.752 94.3332 6.982 94.3332 6.114C94.3332 5.23667 94.1605 4.46667 93.8152 3.804C93.4699 3.14133 92.9752 2.628 92.3312 2.264C91.6965 1.89067 90.9499 1.704 90.0912 1.704ZM90.0632 2.866C89.5032 2.866 88.9899 2.99667 88.5232 3.258C88.0659 3.51933 87.7019 3.89733 87.4312 4.392C87.1605 4.87733 87.0252 5.44667 87.0252 6.1C87.0252 6.75333 87.1605 7.32733 87.4312 7.822C87.7019 8.30733 88.0659 8.68533 88.5232 8.956C88.9899 9.21733 89.5032 9.348 90.0632 9.348C90.7632 9.348 91.3699 9.16133 91.8832 8.788C92.3965 8.40533 92.7465 7.89667 92.9332 7.262H91.7572C91.4772 8.03667 90.9125 8.424 90.0632 8.424C89.5032 8.424 89.0459 8.22333 88.6912 7.822C88.3365 7.42067 88.1592 6.85133 88.1592 6.114C88.1592 5.36733 88.3365 4.79333 88.6912 4.392C89.0459 3.99067 89.5032 3.79 90.0632 3.79C90.4739 3.79 90.8285 3.89267 91.1272 4.098C91.4259 4.294 91.6359 4.57867 91.7572 4.952H92.9332C92.7559 4.28933 92.4105 3.776 91.8972 3.412C91.3839 3.048 90.7725 2.866 90.0632 2.866ZM100.068 9.978C101.253 9.026 102.182 8.24667 102.854 7.64C103.526 7.024 104.09 6.38467 104.548 5.722C105.014 5.05 105.248 4.392 105.248 3.748C105.248 3.14133 105.098 2.66533 104.8 2.32C104.51 1.96533 104.039 1.788 103.386 1.788C102.751 1.788 102.256 1.98867 101.902 2.39C101.556 2.782 101.37 3.30933 101.342 3.972H100.11C100.147 2.92667 100.464 2.11933 101.062 1.55C101.659 0.980666 102.429 0.695999 103.372 0.695999C104.333 0.695999 105.094 0.961999 105.654 1.494C106.223 2.026 106.508 2.75867 106.508 3.692C106.508 4.46667 106.274 5.22267 105.808 5.96C105.35 6.688 104.828 7.332 104.24 7.892C103.652 8.44267 102.9 9.08667 101.986 9.824H106.802V10.888H100.068V9.978ZM108.274 5.834C108.274 4.22867 108.536 2.978 109.058 2.082C109.581 1.17667 110.496 0.724 111.802 0.724C113.1 0.724 114.01 1.17667 114.532 2.082C115.055 2.978 115.316 4.22867 115.316 5.834C115.316 7.46733 115.055 8.73667 114.532 9.642C114.01 10.5473 113.1 11 111.802 11C110.496 11 109.581 10.5473 109.058 9.642C108.536 8.73667 108.274 7.46733 108.274 5.834ZM114.056 5.834C114.056 5.022 114 4.336 113.888 3.776C113.786 3.20667 113.566 2.74933 113.23 2.404C112.904 2.05867 112.428 1.886 111.802 1.886C111.168 1.886 110.682 2.05867 110.346 2.404C110.02 2.74933 109.8 3.20667 109.688 3.776C109.586 4.336 109.534 5.022 109.534 5.834C109.534 6.674 109.586 7.37867 109.688 7.948C109.8 8.51733 110.02 8.97467 110.346 9.32C110.682 9.66533 111.168 9.838 111.802 9.838C112.428 9.838 112.904 9.66533 113.23 9.32C113.566 8.97467 113.786 8.51733 113.888 7.948C114 7.37867 114.056 6.674 114.056 5.834ZM116.911 9.978C118.097 9.026 119.025 8.24667 119.697 7.64C120.369 7.024 120.934 6.38467 121.391 5.722C121.858 5.05 122.091 4.392 122.091 3.748C122.091 3.14133 121.942 2.66533 121.643 2.32C121.354 1.96533 120.883 1.788 120.229 1.788C119.595 1.788 119.1 1.98867 118.745 2.39C118.4 2.782 118.213 3.30933 118.185 3.972H116.953C116.991 2.92667 117.308 2.11933 117.905 1.55C118.503 0.980666 119.273 0.695999 120.215 0.695999C121.177 0.695999 121.937 0.961999 122.497 1.494C123.067 2.026 123.351 2.75867 123.351 3.692C123.351 4.46667 123.118 5.22267 122.651 5.96C122.194 6.688 121.671 7.332 121.083 7.892C120.495 8.44267 119.744 9.08667 118.829 9.824H123.645V10.888H116.911V9.978ZM124.81 8.746V7.78L129.724 0.976H131.25V7.64H132.65V8.746H131.25V11H129.99V8.746H124.81ZM130.046 2.306L126.28 7.64H130.046V2.306Z" fill="#6C6C6C"/>
</svg>
