<svg width="19" height="19" viewBox="0 0 19 19" fill="none" xmlns="http://www.w3.org/2000/svg">
<path d="M15.3747 7.70725L18.1066 5.13568L18.1225 5.12068C18.6852 4.55801 19.0013 3.79486 19.0013 2.99912C19.0013 2.20338 18.6852 1.44023 18.1225 0.877559C17.5598 0.314886 16.7967 -0.0012207 16.0009 -0.0012207C15.2052 -0.0012207 14.4421 0.314886 13.8794 0.877559L13.8644 0.893497L11.2928 3.62537L3.51157 0.794122C3.37746 0.745343 3.23221 0.73584 3.09289 0.766727C2.95356 0.797615 2.82594 0.867611 2.72501 0.968497L0.475007 3.2185C0.396603 3.29696 0.33658 3.39184 0.299263 3.4963C0.261946 3.60076 0.248265 3.7122 0.259205 3.82258C0.270144 3.93297 0.305433 4.03955 0.362527 4.13465C0.419622 4.22975 0.497101 4.31101 0.589382 4.37256L6.57907 8.36537L5.18969 9.75006H3.25001C3.05136 9.75015 2.86086 9.82905 2.72032 9.96943L0.470319 12.2194C0.382571 12.307 0.317884 12.4149 0.282043 12.5335C0.246201 12.6522 0.240323 12.7779 0.264934 12.8993C0.289545 13.0208 0.343878 13.1343 0.423073 13.2296C0.502268 13.325 0.603858 13.3992 0.718757 13.4457L4.17063 14.8266L5.54876 18.2719L5.55438 18.2869C5.60206 18.4023 5.67779 18.504 5.77471 18.5827C5.87164 18.6615 5.98668 18.7147 6.10941 18.7377C6.23214 18.7607 6.35867 18.7527 6.47752 18.7144C6.59637 18.6762 6.70378 18.6088 6.79001 18.5185L9.02782 16.2797C9.09784 16.2104 9.15351 16.1279 9.19163 16.037C9.22976 15.9461 9.24959 15.8486 9.25001 15.7501V13.8104L10.6338 12.4266L14.6266 18.4163C14.6881 18.5086 14.7694 18.5861 14.8645 18.6432C14.9596 18.7003 15.0662 18.7355 15.1765 18.7465C15.2869 18.7574 15.3984 18.7437 15.5028 18.7064C15.6073 18.6691 15.7022 18.6091 15.7806 18.5307L18.0306 16.2807C18.1315 16.1798 18.2015 16.0521 18.2324 15.9128C18.2633 15.7735 18.2538 15.6282 18.205 15.4941L15.3747 7.70725ZM15.3681 16.8226L11.3753 10.8329C11.314 10.7401 11.2328 10.662 11.1376 10.6045C11.0425 10.5469 10.9357 10.5113 10.825 10.5001C10.8003 10.4987 10.7756 10.4987 10.7509 10.5001C10.6524 10.5 10.5549 10.5193 10.4638 10.557C10.3728 10.5946 10.29 10.6498 10.2203 10.7194L7.97032 12.9694C7.90052 13.0391 7.84514 13.1218 7.80734 13.2128C7.76953 13.3039 7.75005 13.4015 7.75001 13.5001V15.4397L6.52469 16.6651L5.44657 13.9688C5.40885 13.8752 5.35262 13.7902 5.28126 13.7188C5.2099 13.6474 5.12486 13.5912 5.03126 13.5535L2.33688 12.4754L3.56126 11.2501H5.50001C5.59853 11.2501 5.6961 11.2308 5.78714 11.1932C5.87819 11.1555 5.96093 11.1003 6.03063 11.0307L8.28063 8.78069C8.35921 8.70221 8.41938 8.60727 8.45679 8.50272C8.49421 8.39816 8.50795 8.2866 8.497 8.1761C8.48606 8.06559 8.45071 7.95889 8.39352 7.8637C8.33632 7.76852 8.2587 7.68722 8.16626 7.62568L2.17751 3.63193L3.44313 2.36725L11.245 5.20412C11.3825 5.25463 11.5317 5.26379 11.6743 5.23047C11.8169 5.19715 11.9467 5.12281 12.0475 5.01662L14.9481 1.93412C15.233 1.67322 15.6075 1.53227 15.9937 1.5406C16.3798 1.54894 16.7479 1.70594 17.0212 1.97889C17.2946 2.25184 17.452 2.61971 17.4609 3.00588C17.4697 3.39205 17.3293 3.76674 17.0688 4.05193L13.9872 6.95256C13.881 7.05341 13.8067 7.18314 13.7733 7.32575C13.74 7.46836 13.7492 7.6176 13.7997 7.75506L16.6366 15.5569L15.3681 16.8226Z" fill="#EF5F4C"/>
</svg>
